<svg xmlns="http://www.w3.org/2000/svg" version="1.1" xmlns:xlink="http://www.w3.org/1999/xlink" width="455.73" height="339.52"><svg xmlns="http://www.w3.org/2000/svg" viewBox="0 0 455.73 339.52"><path d="M417.87,337.34s-70.6.23-113.68.23c-22,0-48.85-26.38-77.1-58.59v0c-45.77-50.51-101.8-116.3-145-116.3,0,0,70.6-.23,113.67-.23,22,0,48.86,26.38,77.11,58.59v0C318.69,271.55,374.72,337.34,417.87,337.34ZM212.92,303.23v0c-28.25-32.22-55.06-58.6-77.1-58.6-43.08,0-113.68.23-113.68.23,43.15,0,99.18,65.79,145,116.31h0c28.25,32.22,55.06,58.6,77.1,58.6,43.08,0,113.68-.23,113.68-.23C314.72,419.53,258.69,353.74,212.92,303.23Zm120-164.38h0c-28.25-32.22-55.06-58.6-77.1-58.6-43.08,0-113.68.23-113.68.23,43.15,0,99.18,65.79,145,116.3v0c28.25,32.22,55.06,58.6,77.1,58.6,43.08,0,113.68-.23,113.68-.23C434.72,255.16,378.69,189.37,332.92,138.85Z" transform="translate(-22.13 -80.24)"></path></svg><style>@media (prefers-color-scheme: light) { :root { filter: none; } }
@media (prefers-color-scheme: dark) { :root { filter: invert(100%); } }
</style></svg>